<svg xmlns="http://www.w3.org/2000/svg" viewBox="0 0 800 360"><defs><linearGradient id="g" x1="0" x2="1"><stop stop-color="#ff8a00"/><stop offset="1" stop-color="#e52e71"/></linearGradient></defs><rect width="800" height="360" rx="32" fill="url(#g)"/><circle cx="660" cy="75" r="155" fill="#fff" opacity=".08"/><g fill="none" stroke="#fff" stroke-width="22"><circle cx="245" cy="175" r="68"/><circle cx="410" cy="175" r="50"/><path d="M245 73v34M245 243v34M143 175h34M313 175h34M174 104l24 24M292 222l24 24M174 246l24-24M292 128l24-24M410 99v26M410 225v26M334 175h26M460 175h26"/></g><path d="M520 210c74-4 111-39 132-91" fill="none" stroke="#fff" stroke-width="18" stroke-linecap="round"/><path d="m630 102 34 5-15 31" fill="none" stroke="#fff" stroke-width="18" stroke-linecap="round" stroke-linejoin="round"/><text x="90" y="327" font-family="Arial,sans-serif" font-size="36" font-weight="700" fill="#fff">AUTOMATION &amp; BOTS</text></svg>